# xmcd
#
# Track frame offsets: 
#        150
#        15872
#        31592
#        48244
#        63891
#        98344
#        115388
#        144006
#        160229
#        177931
#        193359
#        208604
#        226026
#        267671
#        285441
#
# Disc length: 4274 seconds
#
# Revision: 0
# Processed by: cddbd v1.5.2PL0 Copyright (c) Steve Scherf et al.
# Submitted via: ExactAudioCopy v1.0b3
#
DISCID=ba10b00f
DTITLE=Various Artist - Trance Gladiators Vol. 1 - CD 1
DYEAR=1900
DGENRE=
TTITLE0=Jordan - Jordan Is Back (Rock The Nation)
TTITLE1=DJ Dean - Dreamworld (Nomansland Radio Cut)
TTITLE2=Technoboy - Into Deep (Rocco Vs. Bass-T Radio Mix)
TTITLE3=The Hitmen - Like I Love You (Radio Mix)
TTITLE4=Joop - The Future (Original)
TTITLE5=Cosmic Gate - Analog Feel
TTITLE6=Jeckyll and Hide - Frozen Flame (Rocco Vs. Bass-T Remix)
TTITLE7=Scooter - Behind The Cow (Radio)
TTITLE8=Marc Korn Vs. San Danielle - Secret Of You (Megara Vs. DJ Lee 
TTITLE8=Radio Edit)
TTITLE9=Verano - Abfahrt! (Single Edit)
TTITLE10=DJ Yanny - Rhythm Is A Bass (Hands Up Radio Mix)
TTITLE11=Kimera - The Beach (Solar Patrol Radio Edit)
TTITLE12=Nic Chagall - What You Need (NC In Love With Prog Mix)
TTITLE13=Ramon Zerano - Today (Mainfield Radio Mix)
TTITLE14=Lange Vs. Gareth Enemy - Another You, Another Me (Original Mi
TTITLE14=x)
EXTD=
EXTT0=
EXTT1=
EXTT2=
EXTT3=
EXTT4=
EXTT5=
EXTT6=
EXTT7=
EXTT8=
EXTT9=
EXTT10=
EXTT11=
EXTT12=
EXTT13=
EXTT14=
PLAYORDER=
